<svg width="50" height="50" viewBox="0 0 50 50" fill="none" xmlns="http://www.w3.org/2000/svg">
<path d="M25 29.1667L24.2929 29.8738L25 30.5809L25.7071 29.8738L25 29.1667ZM26 10.4167C26 9.86438 25.5523 9.41667 25 9.41667C24.4477 9.41667 24 9.86438 24 10.4167L26 10.4167ZM13.8762 19.4571L24.2929 29.8738L25.7071 28.4596L15.2905 18.0429L13.8762 19.4571ZM25.7071 29.8738L36.1238 19.4571L34.7096 18.0429L24.2929 28.4596L25.7071 29.8738ZM26 29.1667L26 10.4167L24 10.4167L24 29.1667L26 29.1667Z" fill="#27374D"/>
<path d="M10.4167 33.3333L10.4167 35.4167C10.4167 37.7179 12.2821 39.5833 14.5833 39.5833L35.4167 39.5833C37.7178 39.5833 39.5833 37.7179 39.5833 35.4167V33.3333" stroke="#27374D" stroke-width="2"/>
</svg>
