<svg width="42" height="42" viewBox="0 0 42 42" fill="none" xmlns="http://www.w3.org/2000/svg">
<path d="M22.5078 31.7692H28.6617" stroke="#27374D" stroke-width="1.5" stroke-linecap="round" stroke-linejoin="round"/>
<path d="M34.8156 31.7692H40.9695" stroke="#27374D" stroke-width="1.5" stroke-linecap="round" stroke-linejoin="round"/>
<path d="M6.19986 14.6306L24.0462 24.8767" stroke="#27374D" stroke-width="1.5" stroke-linecap="round" stroke-linejoin="round"/>
<path d="M7.92313 14.8462C11.7467 14.8462 14.8463 11.7466 14.8463 7.92308C14.8463 4.09957 11.7467 1 7.92313 1C4.09959 1 1 4.09957 1 7.92308C1 11.7466 4.09959 14.8462 7.92313 14.8462Z" stroke="#27374D" stroke-width="1.5" stroke-linecap="round" stroke-linejoin="round"/>
<path d="M6.19986 27.3693L41 7.3078" stroke="#27374D" stroke-width="1.5" stroke-linecap="round" stroke-linejoin="round"/>
<path d="M7.92313 41C11.7467 41 14.8463 37.9003 14.8463 34.0769C14.8463 30.2535 11.7467 27.1538 7.92313 27.1538C4.09959 27.1538 1 30.2535 1 34.0769C1 37.9003 4.09959 41 7.92313 41Z" stroke="#27374D" stroke-width="1.5" stroke-linecap="round" stroke-linejoin="round"/>
</svg>
