<svg width="40" height="40" viewBox="0 0 40 40" fill="none" xmlns="http://www.w3.org/2000/svg">
<path d="M2.85712 10H37.1428" stroke="#27374D" stroke-linecap="round" stroke-linejoin="round"/>
<path d="M7.14282 10H32.8571V35.7143C32.8571 36.472 32.556 37.1989 32.0202 37.7346C31.4845 38.2703 30.7577 38.5714 30 38.5714H9.99996C9.24219 38.5714 8.51548 38.2703 7.97965 37.7346C7.44385 37.1989 7.14282 36.472 7.14282 35.7143V10Z" stroke="#27374D" stroke-linecap="round" stroke-linejoin="round"/>
<path d="M12.8571 10V8.57145C12.8571 6.67705 13.6097 4.86022 14.9492 3.52067C16.2887 2.18114 18.1056 1.42859 20 1.42859C21.8944 1.42859 23.7112 2.18114 25.0507 3.52067C26.3903 4.86022 27.1428 6.67705 27.1428 8.57145V10" stroke="#27374D" stroke-linecap="round" stroke-linejoin="round"/>
<path d="M15.7142 18.5756V30.0086" stroke="#27374D" stroke-linecap="round" stroke-linejoin="round"/>
<path d="M24.2857 18.5756V30.0086" stroke="#27374D" stroke-linecap="round" stroke-linejoin="round"/>
</svg>
