<svg width="40" height="40" viewBox="0 0 40 40" fill="none" xmlns="http://www.w3.org/2000/svg">
<path d="M38.5714 30L27.1427 18.5713L32.8571 12.857C33.2166 12.4928 33.4717 12.0387 33.596 11.5422C33.72 11.0457 33.7083 10.525 33.5626 10.0344C33.4166 9.54392 33.1414 9.1016 32.766 8.75374C32.3906 8.40589 31.9286 8.16526 31.4286 8.05697L4.97129 1.51412C4.49392 1.39664 3.99432 1.40431 3.5208 1.53641C3.04726 1.66851 2.61582 1.92055 2.2682 2.26817C1.92058 2.61579 1.66854 3.04723 1.53644 3.52077C1.40434 3.99429 1.39667 4.49389 1.51415 4.97126L8.057 31.4285C8.18055 31.9194 8.43232 32.3688 8.7866 32.7305C9.14089 33.0923 9.58492 33.3534 10.0733 33.4871C10.5616 33.6208 11.0767 33.6223 11.5658 33.4914C12.055 33.3608 12.5006 33.1023 12.857 32.7428L18.5713 27.0284L30 38.4571L38.5714 30Z" stroke="#27374D" stroke-width="1.5" stroke-linecap="round" stroke-linejoin="round"/>
</svg>
