<svg width="39" height="36" viewBox="0 0 39 36" fill="none" xmlns="http://www.w3.org/2000/svg">
<path d="M17.4231 8.53405C16.9919 8.28504 16.4605 8.28504 16.0292 8.53405L6.59852 13.9213H1.39388C0.624048 13.9213 0 14.5454 0 15.3151V23.6782C0 24.448 0.624048 25.0721 1.39388 25.0721H6.59852L16.0349 30.4635C16.7033 30.8453 17.5547 30.613 17.9365 29.9446C18.0567 29.7341 18.1199 29.496 18.12 29.2536V9.73976C18.1195 9.2423 17.8539 8.78282 17.4231 8.53405ZM15.3323 26.8506L7.66612 22.4683C7.45394 22.347 7.21359 22.2835 6.96923 22.2843H2.78767V16.7089H6.96923C7.21367 16.7097 7.45402 16.6463 7.66612 16.5249L15.3323 12.1426V26.8506Z" fill="#DDE6ED"/>
</svg>
