<svg width="39" height="36" viewBox="0 0 39 36" fill="none" xmlns="http://www.w3.org/2000/svg">
<path d="M17.4231 8.53405C16.9919 8.28504 16.4605 8.28504 16.0292 8.53405L6.59852 13.9213H1.39388C0.624048 13.9213 0 14.5454 0 15.3151V23.6782C0 24.448 0.624048 25.0721 1.39388 25.0721H6.59852L16.0349 30.4635C16.7033 30.8453 17.5547 30.613 17.9365 29.9446C18.0567 29.7341 18.1199 29.496 18.12 29.2536V9.73976C18.1195 9.2423 17.8539 8.78282 17.4231 8.53405ZM15.3323 26.8506L7.66612 22.4683C7.45394 22.347 7.21359 22.2835 6.96923 22.2843H2.78767V16.7089H6.96923C7.21367 16.7097 7.45402 16.6463 7.66612 16.5249L15.3323 12.1426V26.8506Z" fill="#DDE6ED"/>
<path d="M23.3874 14.4412C22.9048 13.8424 22.0285 13.7476 21.429 14.2293C20.829 14.7115 20.7334 15.5889 21.2156 16.1889C21.2156 16.1889 21.2157 16.189 21.2157 16.1891C22.6571 18.1586 22.6571 20.8348 21.2157 22.8043C20.7297 23.4013 20.8198 24.2792 21.4168 24.7652C22.0139 25.2511 22.8918 25.161 23.3778 24.564C23.381 24.5601 23.3841 24.5562 23.3873 24.5522C25.6678 21.5676 25.6678 17.4258 23.3874 14.4412Z" fill="#DDE6ED"/>
<path d="M28.9629 10.2596C28.4803 9.66091 27.604 9.56609 27.0045 10.0478C26.4045 10.53 26.3089 11.4074 26.7912 12.0074C26.7912 12.0075 26.7912 12.0075 26.7912 12.0076C30.1114 16.4483 30.1114 22.5451 26.7912 26.9858C26.3053 27.5829 26.3954 28.4608 26.9924 28.9468C27.5894 29.4327 28.4674 29.3426 28.9533 28.7456C28.9565 28.7417 28.9597 28.7378 28.9629 28.7338C33.0581 23.2565 33.0581 15.7368 28.9629 10.2596Z" fill="#DDE6ED"/>
<path d="M34.5382 6.07812C34.0556 5.47939 33.1793 5.38457 32.5798 5.86627C31.9798 6.34845 31.8842 7.22584 32.3665 7.82588C32.3665 7.82596 32.3666 7.82596 32.3666 7.82604C37.5406 14.7463 37.5406 24.2472 32.3666 31.1674C31.8806 31.7645 31.9707 32.6424 32.5677 33.1284C33.1647 33.6143 34.0427 33.5242 34.5286 32.9272C34.5318 32.9233 34.535 32.9194 34.5382 32.9154C40.4872 24.9586 40.4872 14.0347 34.5382 6.07812Z" fill="#DDE6ED"/>
</svg>
